<mxfile host="Electron" agent="Mozilla/5.0 (Macintosh; Intel Mac OS X 10_15_7) AppleWebKit/537.36 (KHTML, like Gecko) draw.io/24.7.8 Chrome/128.0.6613.36 Electron/32.0.1 Safari/537.36" version="24.7.8">
  <diagram name="Page-1" id="-nApgd9MO6Np330E5fcS">
    <mxGraphModel dx="909" dy="1452" grid="1" gridSize="10" guides="1" tooltips="1" connect="1" arrows="1" fold="1" page="1" pageScale="1" pageWidth="827" pageHeight="1169" math="0" shadow="0">
      <root>
        <mxCell id="0" />
        <mxCell id="1" parent="0" />
        <mxCell id="EPH7hL_kLs843ST_Mce4-13" value="" style="rounded=0;whiteSpace=wrap;html=1;dashed=1;dashPattern=12 12;fillColor=#ffe6cc;strokeColor=#d79b00;opacity=50;" parent="1" vertex="1">
          <mxGeometry x="60" y="200" width="490" height="320" as="geometry" />
        </mxCell>
        <mxCell id="EPH7hL_kLs843ST_Mce4-16" value="" style="rounded=0;whiteSpace=wrap;html=1;dashed=1;dashPattern=12 12;fillColor=#d5e8d4;strokeColor=#82b366;gradientColor=none;opacity=50;" parent="1" vertex="1">
          <mxGeometry x="310" y="520" width="240" height="190" as="geometry" />
        </mxCell>
        <mxCell id="EPH7hL_kLs843ST_Mce4-7" style="edgeStyle=orthogonalEdgeStyle;rounded=0;orthogonalLoop=1;jettySize=auto;html=1;" parent="1" source="EPH7hL_kLs843ST_Mce4-1" target="EPH7hL_kLs843ST_Mce4-6" edge="1">
          <mxGeometry relative="1" as="geometry">
            <Array as="points">
              <mxPoint x="275" y="430" />
              <mxPoint x="430" y="430" />
            </Array>
          </mxGeometry>
        </mxCell>
        <mxCell id="EPH7hL_kLs843ST_Mce4-8" style="edgeStyle=orthogonalEdgeStyle;rounded=0;orthogonalLoop=1;jettySize=auto;html=1;entryX=0.5;entryY=0;entryDx=0;entryDy=0;" parent="1" source="EPH7hL_kLs843ST_Mce4-1" target="EPH7hL_kLs843ST_Mce4-5" edge="1">
          <mxGeometry relative="1" as="geometry" />
        </mxCell>
        <mxCell id="EPH7hL_kLs843ST_Mce4-1" value="Container Runtime Interface (CRI)" style="rounded=0;whiteSpace=wrap;html=1;" parent="1" vertex="1">
          <mxGeometry x="120" y="370" width="310" height="30" as="geometry" />
        </mxCell>
        <mxCell id="EPH7hL_kLs843ST_Mce4-2" value="sre" style="shape=umlActor;verticalLabelPosition=bottom;verticalAlign=top;html=1;outlineConnect=0;fillColor=#dae8fc;strokeColor=#6c8ebf;" parent="1" vertex="1">
          <mxGeometry x="680" y="350" width="30" height="60" as="geometry" />
        </mxCell>
        <mxCell id="EPH7hL_kLs843ST_Mce4-3" value="crictl" style="shape=process;whiteSpace=wrap;html=1;backgroundOutline=1;fillColor=#dae8fc;strokeColor=#6c8ebf;" parent="1" vertex="1">
          <mxGeometry x="310" y="340" width="120" height="30" as="geometry" />
        </mxCell>
        <mxCell id="EPH7hL_kLs843ST_Mce4-5" value="rkt" style="rounded=0;whiteSpace=wrap;html=1;" parent="1" vertex="1">
          <mxGeometry x="80" y="460" width="120" height="30" as="geometry" />
        </mxCell>
        <mxCell id="EPH7hL_kLs843ST_Mce4-6" value="container.d" style="rounded=0;whiteSpace=wrap;html=1;" parent="1" vertex="1">
          <mxGeometry x="330" y="600" width="200" height="30" as="geometry" />
        </mxCell>
        <mxCell id="EPH7hL_kLs843ST_Mce4-9" value="ctr" style="shape=process;whiteSpace=wrap;html=1;backgroundOutline=1;fillColor=#dae8fc;strokeColor=#6c8ebf;" parent="1" vertex="1">
          <mxGeometry x="440" y="540" width="90" height="30" as="geometry" />
        </mxCell>
        <mxCell id="EPH7hL_kLs843ST_Mce4-11" value="nerdctl" style="shape=process;whiteSpace=wrap;html=1;backgroundOutline=1;fillColor=#fff2cc;strokeColor=#d6b656;" parent="1" vertex="1">
          <mxGeometry x="330" y="540" width="85" height="30" as="geometry" />
        </mxCell>
        <mxCell id="EPH7hL_kLs843ST_Mce4-14" value="K8S" style="rounded=0;whiteSpace=wrap;html=1;dashed=1;dashPattern=12 12;fillColor=#ffe6cc;strokeColor=#d79b00;" parent="1" vertex="1">
          <mxGeometry x="60" y="800" width="90" height="70" as="geometry" />
        </mxCell>
        <mxCell id="EPH7hL_kLs843ST_Mce4-15" value="Plain Docker" style="rounded=0;whiteSpace=wrap;html=1;dashed=1;dashPattern=12 12;fillColor=#d5e8d4;strokeColor=#82b366;" parent="1" vertex="1">
          <mxGeometry x="190" y="800" width="90" height="70" as="geometry" />
        </mxCell>
        <mxCell id="EPH7hL_kLs843ST_Mce4-23" style="edgeStyle=orthogonalEdgeStyle;rounded=0;orthogonalLoop=1;jettySize=auto;html=1;" parent="1" source="EPH7hL_kLs843ST_Mce4-18" target="EPH7hL_kLs843ST_Mce4-6" edge="1">
          <mxGeometry relative="1" as="geometry" />
        </mxCell>
        <mxCell id="EPH7hL_kLs843ST_Mce4-18" value="docker" style="shape=process;whiteSpace=wrap;html=1;backgroundOutline=1;fillColor=#fff2cc;strokeColor=#d6b656;" parent="1" vertex="1">
          <mxGeometry x="387.5" y="660" width="85" height="30" as="geometry" />
        </mxCell>
        <mxCell id="EPH7hL_kLs843ST_Mce4-19" value="user" style="shape=umlActor;verticalLabelPosition=bottom;verticalAlign=top;html=1;outlineConnect=0;fillColor=#fff2cc;strokeColor=#d6b656;" parent="1" vertex="1">
          <mxGeometry x="680" y="465" width="30" height="60" as="geometry" />
        </mxCell>
        <mxCell id="EPH7hL_kLs843ST_Mce4-24" value="Tools and their Audiences" style="text;html=1;align=center;verticalAlign=middle;whiteSpace=wrap;rounded=0;fontSize=26;" parent="1" vertex="1">
          <mxGeometry x="140" y="100" width="330" height="30" as="geometry" />
        </mxCell>
        <mxCell id="EPH7hL_kLs843ST_Mce4-25" value="kubectl" style="shape=process;whiteSpace=wrap;html=1;backgroundOutline=1;fillColor=#f8cecc;strokeColor=#b85450;" parent="1" vertex="1">
          <mxGeometry x="232.5" y="210" width="85" height="30" as="geometry" />
        </mxCell>
        <mxCell id="EPH7hL_kLs843ST_Mce4-26" value="all" style="shape=umlActor;verticalLabelPosition=bottom;verticalAlign=top;html=1;outlineConnect=0;fillColor=#f8cecc;strokeColor=#b85450;" parent="1" vertex="1">
          <mxGeometry x="740" y="405" width="30" height="60" as="geometry" />
        </mxCell>
        <mxCell id="8XRJJ9zK19_bOjFiNSWg-1" value="&lt;span style=&quot;background-color: initial;&quot;&gt;runc&lt;/span&gt;&lt;div&gt;&lt;span style=&quot;background-color: initial;&quot;&gt;&lt;font style=&quot;font-size: 8px;&quot;&gt;&lt;i&gt;low level system client&lt;/i&gt;&lt;/font&gt;&lt;/span&gt;&lt;/div&gt;" style="shape=process;whiteSpace=wrap;html=1;backgroundOutline=1;" vertex="1" parent="1">
          <mxGeometry x="460" y="580" width="110" height="30" as="geometry" />
        </mxCell>
      </root>
    </mxGraphModel>
  </diagram>
</mxfile>
